HIERARCHY
ROOT Hips
{
 OFFSET 0.000000 0.000000 0.000000
 CHANNELS 6 Xposition Yposition Zposition Yrotation Xrotation Zrotation
 JOINT Chest
 {
  OFFSET 0.000000 9.585900 0.002600
  CHANNELS 3 Yrotation Xrotation Zrotation
  JOINT Chest2
  {
   OFFSET 0.000000 9.601200 -0.005300
   CHANNELS 3 Yrotation Xrotation Zrotation
   JOINT Chest3
   {
    OFFSET 0.000000 9.561800 0.000000
    CHANNELS 3 Yrotation Xrotation Zrotation
    JOINT Chest4
    {
     OFFSET 0.000000 9.552100 0.000000
     CHANNELS 3 Yrotation Xrotation Zrotation
     JOINT Neck
     {
      OFFSET 0.000000 14.453000 0.000000
      CHANNELS 3 Yrotation Xrotation Zrotation
      JOINT Head
      {
       OFFSET 0.000000 8.936500 -0.011300
       CHANNELS 3 Yrotation Xrotation Zrotation
       End Site
       {
        OFFSET 0.000000 17.073600 -0.006000
       }
      }
     }
     JOINT RightCollar
     {
      OFFSET -2.921100 9.558500 0.000000
      CHANNELS 3 Yrotation Xrotation Zrotation
      JOINT RightShoulder
      {
       OFFSET -13.519700 0.000000 0.000000
       CHANNELS 3 Yrotation Xrotation Zrotation
       JOINT RightElbow
       {
        OFFSET 0.000000 -29.696600 0.000000
        CHANNELS 3 Yrotation Xrotation Zrotation
        JOINT RightWrist
        {
         OFFSET 0.000000 -24.004700 0.000000
         CHANNELS 3 Yrotation Xrotation Zrotation
         End Site
         {
          OFFSET 0.000000 -17.728500 0.000000
         }
        }
       }
      }
     }
     JOINT LeftCollar
     {
      OFFSET 2.921100 9.558500 0.000000
      CHANNELS 3 Yrotation Xrotation Zrotation
      JOINT LeftShoulder
      {
       OFFSET 13.519700 0.000000 0.000000
       CHANNELS 3 Yrotation Xrotation Zrotation
       JOINT LeftElbow
       {
        OFFSET 0.000000 -29.696600 0.000000
        CHANNELS 3 Yrotation Xrotation Zrotation
        JOINT LeftWrist
        {
         OFFSET 0.000000 -24.004700 0.000000
         CHANNELS 3 Yrotation Xrotation Zrotation
         End Site
         {
          OFFSET 0.000000 -17.728500 0.000000
         }
        }
       }
      }
     }
    }
   }
  }
 }
 JOINT RightHip
 {
  OFFSET -7.771700 -0.012900 -0.001300
  CHANNELS 3 Yrotation Xrotation Zrotation
  JOINT RightKnee
  {
   OFFSET 0.000000 -40.869800 0.001200
   CHANNELS 3 Yrotation Xrotation Zrotation
   JOINT RightAnkle
   {
    OFFSET 0.000000 -39.717900 0.002100
    CHANNELS 3 Yrotation Xrotation Zrotation
    JOINT RightToe
    {
     OFFSET 0.000000 -4.965400 11.033500
     CHANNELS 3 Yrotation Xrotation Zrotation
     End Site
     {
      OFFSET 0.000000 -1.423100 5.872300
     }
    }
   }
  }
 }
 JOINT LeftHip
 {
  OFFSET 7.771700 -0.012900 -0.001300
  CHANNELS 3 Yrotation Xrotation Zrotation
  JOINT LeftKnee
  {
   OFFSET 0.000000 -40.869800 0.001200
   CHANNELS 3 Yrotation Xrotation Zrotation
   JOINT LeftAnkle
   {
    OFFSET 0.000000 -39.717900 0.002100
    CHANNELS 3 Yrotation Xrotation Zrotation
    JOINT LeftToe
    {
     OFFSET 0.000000 -4.965400 11.033500
     CHANNELS 3 Yrotation Xrotation Zrotation
     End Site
     {
      OFFSET 0.000000 -1.423100 5.872300
     }
    }
   }
  }
 }
}
MOTION
Frames: 8
Frame Time: 0.008333
16.128431 49.981501 54.482369 173.538673 -33.065987 -6.700451 5.438392 20.023675 7.303757 0.602526 2.741038 0.735830 1.006631 4.431370 1.206288 4.573431 17.146331 5.279737 2.641907 17.015056 4.666652 3.308416 -4.092519 7.783911 -3.583488 -4.504999 -8.418558 5.543892 -5.528061 1.193212 147.616968 -73.188261 -153.713121 14.566460 -0.767967 62.532897 -8.840903 -2.422878 0.317710 0.063056 -6.463319 -2.355988 141.471427 -74.320661 -151.586218 -0.945059 17.399224 -81.241424 0.172970 -47.518973 9.780147 -117.987909 82.644403 -106.614468 -2.867962 -13.741585 -2.100745 -0.126549 0.960183 -0.066323 -9.229121 -51.310386 16.292212 -149.385121 80.732186 -157.204435 1.069894 -16.757405 7.961908 -0.388855 -0.736854 -0.126878
16.128842 49.983796 54.480135 173.544179 -33.054742 -6.692093 5.425293 20.035103 7.294703 0.605511 2.734301 0.734544 1.006202 4.428645 1.204518 4.571003 17.144631 5.276780 2.657308 17.054553 4.689492 3.322966 -4.054306 7.796055 -3.506991 -4.394680 -8.362713 5.588084 -5.687538 1.114325 149.202195 -73.238523 -155.202943 14.375683 -0.868670 62.940856 -8.820893 -2.310351 0.309016 -0.181340 -6.619706 -2.477195 140.596482 -73.997145 -150.920333 -0.681444 17.485411 -81.280297 0.164580 -47.527392 9.765555 -118.086575 82.657897 -106.705556 -2.876948 -13.753811 -2.118464 -0.108188 0.960724 -0.062561 -9.218993 -51.320608 16.281216 -149.446168 80.737730 -157.271261 1.045310 -16.762448 7.962268 -0.387055 -0.735383 -0.126876
16.128967 49.984062 54.480277 173.534842 -33.025979 -6.676198 5.425995 20.022191 7.286449 0.605838 2.722890 0.729984 1.005789 4.432983 1.205544 4.568877 17.155118 5.276454 2.678733 17.109378 4.709467 3.303336 -4.030924 7.802093 -3.447384 -4.303535 -8.304181 5.653786 -5.836935 1.021046 150.872091 -73.281860 -156.771374 14.173548 -0.991018 63.355297 -8.799624 -2.293274 0.308360 -0.429606 -6.698680 -2.570951 139.535891 -73.676738 -150.082480 -0.363171 17.576162 -81.217561 0.165444 -47.560254 9.755393 -118.149135 82.659065 -106.774065 -2.853674 -13.756518 -2.125785 -0.121745 0.959785 -0.062390 -9.199658 -51.348160 16.274993 -149.468177 80.741878 -157.301057 1.036805 -16.779538 7.948281 -0.397725 -0.721019 -0.105313
16.129967 49.984866 54.478929 173.520561 -33.008043 -6.662572 5.444355 20.008631 7.289414 0.606424 2.721426 0.729512 1.006774 4.430556 1.204612 4.618300 17.122849 5.285543 2.631731 17.157968 4.719559 3.257365 -3.949664 7.824687 -3.454683 -4.156926 -8.230352 5.720116 -5.995083 0.907195 152.641704 -73.320521 -158.427323 13.960712 -1.128366 63.770609 -8.855108 -2.257804 0.309410 -0.664090 -6.766147 -2.622045 138.332928 -73.372528 -149.117501 0.040809 17.648896 -81.025122 0.145381 -47.580380 9.763710 -118.202945 82.662960 -106.845329 -2.828637 -13.750588 -2.128885 -0.165072 0.950049 -0.069943 -9.172076 -51.366445 16.268633 -149.446597 80.739887 -157.277646 1.018792 -16.791212 7.946669 -0.369665 -0.715831 -0.105924
16.129623 49.986182 54.475129 173.510625 -33.003972 -6.642202 5.483089 19.985804 7.299469 0.618030 2.710303 0.732085 1.006025 4.426911 1.203839 4.591242 17.135762 5.283915 2.623946 17.189204 4.722022 3.184923 -3.852170 7.848756 -3.422755 -4.011093 -8.151444 5.750815 -6.147498 0.787385 154.553935 -73.342265 -160.177770 13.737165 -1.273806 64.179976 -8.776078 -2.216741 0.334677 -0.985824 -6.870945 -2.657516 137.112503 -73.103059 -148.137448 0.579731 17.662585 -80.657100 0.141447 -47.585627 9.759331 -118.286051 82.670897 -106.928520 -2.886676 -13.760147 -2.126723 -0.158652 0.948024 -0.077394 -9.121506 -51.372355 16.240337 -149.510459 80.741665 -157.342258 0.991529 -16.802634 7.956770 -0.388923 -0.715882 -0.110344
16.135752 49.986441 54.473647 173.471978 -32.992533 -6.646793 5.555356 19.940286 7.346531 0.615631 2.708876 0.731257 0.981628 4.445990 1.198249 4.666964 17.079863 5.302043 2.558466 17.256013 4.726788 3.091968 -3.742276 7.870660 -3.450388 -3.816590 -8.064122 5.807773 -6.312423 0.649122 156.533655 -73.366396 -162.008699 13.499947 -1.425144 64.581804 -8.755355 -2.163446 0.361509 -1.305358 -6.971332 -2.656521 136.047990 -72.906055 -147.294663 1.316826 17.567326 -80.061831 0.120023 -47.601408 9.815217 -118.312911 82.672746 -106.965456 -2.862584 -13.793104 -2.123225 -0.190778 0.977502 -0.091885 -9.097162 -51.383670 16.274724 -149.605270 80.741347 -157.433782 1.015540 -16.807337 7.966999 -0.438544 -0.731636 -0.130569
16.141100 49.988189 54.467669 173.417884 -33.010306 -6.635201 5.623662 19.937386 7.376229 0.637598 2.690801 0.736966 0.981486 4.441312 1.199408 4.725779 17.043070 5.321661 2.481168 17.328992 4.727684 2.984115 -3.625977 7.889176 -3.489603 -3.608376 -7.970593 5.891519 -6.489722 0.495926 158.566167 -73.395458 -163.907442 13.247441 -1.580821 64.977301 -8.751883 -2.115206 0.388627 -1.623241 -7.081956 -2.621903 135.263735 -72.828615 -146.691670 2.303949 17.320275 -79.194601 0.124475 -47.589420 9.859618 -118.349316 82.686711 -107.011744 -2.855701 -13.792642 -2.137245 -0.172256 0.976317 -0.085966 -9.036797 -51.364090 16.295995 -149.899223 80.743056 -157.731012 0.969649 -16.839375 7.991294 -0.441467 -0.729551 -0.143417
16.145774 49.988646 54.461300 173.391409 -33.022508 -6.633968 5.668469 19.931072 7.401759 0.640206 2.687753 0.737220 1.008496 4.418447 1.206363 4.767031 17.028777 5.339930 2.414927 17.389360 4.724364 2.865670 -3.510977 7.904797 -3.513140 -3.415025 -7.871976 5.941579 -6.655957 0.349403 160.697851 -73.413719 -165.865914 12.982992 -1.737723 65.368358 -8.729534 -2.087329 0.422545 -1.961434 -7.203699 -2.562313 134.801709 -72.892799 -146.353669 3.552872 16.904855 -78.023336 0.112006 -47.580542 9.900695 -118.410109 82.698504 -107.084914 -2.859211 -13.796130 -2.143009 -0.156215 0.975032 -0.082721 -8.991850 -51.353827 16.305757 -150.031014 80.735479 -157.857294 0.937014 -16.861228 8.011289 -0.445487 -0.729270 -0.154794
